<svg width="123" height="123" viewBox="0 0 123 123" fill="none" xmlns="http://www.w3.org/2000/svg">
<g clip-path="url(#clip0_6_27)">
<path d="M107.625 25.625C101.936 23.8313 95.6837 23.0625 89.6875 23.0625C79.6937 23.0625 68.9313 25.1125 61.5 30.75C54.0687 25.1125 43.3063 23.0625 33.3125 23.0625C23.3188 23.0625 12.5563 25.1125 5.125 30.75V105.831C5.125 107.112 6.40625 108.394 7.6875 108.394C8.2 108.394 8.45625 108.138 8.96875 108.138C15.8875 104.806 25.8813 102.5 33.3125 102.5C43.3063 102.5 54.0687 104.55 61.5 110.188C68.4188 105.831 80.975 102.5 89.6875 102.5C98.1438 102.5 106.856 104.037 114.031 107.881C114.544 108.137 114.8 108.138 115.312 108.138C116.594 108.138 117.875 106.856 117.875 105.575V30.75C114.8 28.4437 111.469 26.9062 107.625 25.625ZM107.625 94.8125C101.988 93.0188 95.8375 92.25 89.6875 92.25C80.975 92.25 68.4188 95.5813 61.5 99.9375V41C68.4188 36.6438 80.975 33.3125 89.6875 33.3125C95.8375 33.3125 101.988 34.0813 107.625 35.875V94.8125Z" fill="#323232"/>
<path d="M89.6875 53.8125C94.1975 53.8125 98.5538 54.2738 102.5 55.145V47.355C98.4513 46.5862 94.095 46.125 89.6875 46.125C80.975 46.125 73.0825 47.6112 66.625 50.3787V58.8862C72.4162 55.6062 80.4625 53.8125 89.6875 53.8125Z" fill="#323232"/>
<path d="M66.625 64.0113V72.5188C72.4162 69.2388 80.4625 67.445 89.6875 67.445C94.1975 67.445 98.5538 67.9063 102.5 68.7775V60.9875C98.4513 60.2188 94.095 59.7575 89.6875 59.7575C80.975 59.7575 73.0825 61.295 66.625 64.0113Z" fill="#323232"/>
<path d="M89.6875 73.4413C80.975 73.4413 73.0825 74.9275 66.625 77.695V86.2025C72.4162 82.9225 80.4625 81.1288 89.6875 81.1288C94.1975 81.1288 98.5538 81.59 102.5 82.4613V74.6713C98.4513 73.8513 94.095 73.4413 89.6875 73.4413Z" fill="#323232"/>
</g>
<defs>
<clipPath id="clip0_6_27">
<rect width="123" height="123" fill="white"/>
</clipPath>
</defs>
</svg>
